<?xml version="1.0" ?><svg height="60px" version="1.1" viewBox="0 0 60 60" width="60px" xmlns="http://www.w3.org/2000/svg" xmlns:sketch="http://www.bohemiancoding.com/sketch/ns" xmlns:xlink="http://www.w3.org/1999/xlink"><title/><desc/><defs/><g fill="none" fill-rule="evenodd" id="Page-1" stroke="none" stroke-width="1"><g fill="#1B1A19" id="Fill-178-+-Fill-179-+-Fill-180" transform="translate(10.000000, 0.000000)"><path d="M31.03,29.125 C30.603,28.774 29.975,28.835 29.622,29.261 C29.27,29.687 29.331,30.316 29.757,30.668 C31.586,32.176 33,34.059 33.947,36.155 C33.818,36.149 33.685,36.168 33.556,36.216 C33.056,36.402 30.56,37.421 30.492,39.204 C30.467,39.843 28.819,40.938 27.935,41.526 L27.733,41.66 C26.329,42.596 25.949,44.198 26.403,45.146 C26.732,45.831 27.444,46.134 28.17,45.906 C29.425,45.508 31.03,45.31 31.769,45.943 C32.47,46.545 33.318,46.727 34.089,46.727 C34.297,46.727 34.497,46.711 34.69,46.689 C34.056,48.859 32.952,50.823 31.496,52.476 L31.418,52.402 C31.388,52.384 30.666,51.921 30.793,51.286 C31.291,48.794 30.705,48.118 30.221,47.826 C29.898,47.634 29.224,47.417 28.324,48.149 C27.747,48.621 26.843,48.422 25.421,48.043 C25.129,47.965 24.835,47.886 24.54,47.815 C22.88,47.426 20.545,47.915 19.647,48.85 C19.252,49.261 19.104,49.78 19.242,50.274 C19.355,50.681 19.85,52.745 18.527,53.519 C17.909,53.881 17.532,54.43 17.437,55.106 C17.323,55.923 17.67,56.792 18.1,57.525 C14.651,57.076 11.559,55.482 9.23,53.121 C9.845,51.195 10.794,49.316 11.303,49.028 C12.818,49.276 14.266,48.188 14.748,47.003 C15.121,46.09 14.874,45.184 14.121,44.694 C13.233,44.116 12.366,42.733 12.366,42.259 C12.366,40.901 11.748,39.995 10.361,39.318 C9.431,38.864 6.848,38.515 5.41,38.349 C6.232,35.39 7.919,32.715 10.342,30.702 C10.767,30.349 10.825,29.719 10.472,29.294 C10.12,28.869 9.491,28.81 9.064,29.163 C5.104,32.452 2.833,37.288 2.833,42.43 C2.833,51.935 10.566,59.667 20.07,59.667 C29.575,59.667 37.307,51.935 37.307,42.43 C37.307,37.264 35.019,32.414 31.03,29.125 L31.03,29.125 Z M4.997,40.315 C6.713,40.51 8.923,40.842 9.484,41.115 C10.306,41.517 10.366,41.815 10.366,42.259 C10.366,43.568 11.667,45.406 12.887,46.273 C12.826,46.403 12.685,46.604 12.453,46.781 C12.168,47 11.85,47.098 11.608,47.051 C9.853,46.709 8.537,49.16 7.728,51.329 C5.915,48.822 4.833,45.753 4.833,42.43 C4.833,41.715 4.9,41.012 4.997,40.315 L4.997,40.315 Z M19.538,55.245 C21.412,54.148 21.667,51.944 21.263,50.115 C21.768,49.844 23.066,49.524 24.08,49.762 C24.355,49.827 24.631,49.901 24.904,49.975 C26.216,50.327 27.678,50.717 28.954,50.104 C28.931,50.327 28.892,50.592 28.832,50.894 C28.552,52.292 29.374,53.354 30.071,53.897 C27.529,56.117 24.251,57.501 20.651,57.638 C20.06,56.971 19.347,55.889 19.418,55.384 C19.423,55.344 19.428,55.309 19.538,55.245 L19.538,55.245 Z M35.138,44.572 C34.553,44.737 33.598,44.878 33.07,44.426 C31.751,43.296 29.809,43.445 28.399,43.771 C28.495,43.62 28.637,43.461 28.842,43.324 L29.041,43.191 C30.628,42.137 32.426,40.941 32.489,39.286 C32.538,39.028 33.362,38.426 34.255,38.09 C34.387,38.04 34.501,37.965 34.596,37.873 C35.052,39.331 35.307,40.861 35.307,42.43 C35.307,43.159 35.238,43.87 35.138,44.572 L35.138,44.572 Z" id="Fill-178"/><path d="M38.296,9.339 C37.383,8.828 36.357,8.686 35.375,8.891 C35.1,7.822 34.41,6.849 33.346,6.104 C32.091,5.227 30.515,4.764 28.912,4.708 C27.044,1.798 23.747,0 20.135,0 C16.523,0 13.227,1.797 11.358,4.707 C10.111,4.751 8.874,5.038 7.785,5.591 C6.573,6.207 5.689,7.068 5.196,8.079 C4.131,7.776 2.992,7.895 1.985,8.453 C0.559,9.242 -0.327,10.767 -0.327,12.433 C-0.327,14.139 0.591,15.679 2.067,16.453 C3.159,17.025 4.376,17.107 5.48,16.709 C6.154,17.754 7.249,18.556 8.705,19.057 C9.752,19.417 10.943,19.592 12.108,19.592 C12.71,19.592 13.293,19.529 13.857,19.437 C14.218,19.796 14.556,20.067 14.828,20.284 C15.403,20.745 15.694,20.978 15.804,21.735 C15.321,21.783 14.844,21.923 14.399,22.161 C13.164,22.823 12.426,24.056 12.426,25.457 C12.426,26.826 13.138,28.045 14.331,28.719 C14.63,28.888 14.945,29.01 15.265,29.091 C15.253,29.243 15.239,29.4 15.227,29.549 C14.987,32.477 14.797,34.789 13.293,36.293 C12.902,36.684 12.902,37.316 13.293,37.707 C13.488,37.902 13.744,38 14,38 C14.256,38 14.512,37.902 14.707,37.707 C16.73,35.684 16.957,32.917 17.22,29.713 C17.238,29.488 17.259,29.254 17.278,29.024 C17.56,28.934 17.836,28.817 18.099,28.658 C18.572,28.373 18.724,27.758 18.439,27.285 C18.153,26.813 17.538,26.658 17.066,26.945 C16.51,27.279 15.871,27.291 15.314,26.977 C14.758,26.663 14.426,26.095 14.426,25.457 C14.426,24.805 14.769,24.231 15.344,23.924 C15.925,23.614 16.595,23.643 17.137,24.004 C17.596,24.31 18.218,24.187 18.523,23.725 C18.829,23.265 18.704,22.644 18.244,22.338 C18.112,22.25 17.975,22.174 17.835,22.104 C17.773,21.044 17.547,20.36 17.183,19.832 C17.982,20.191 18.872,20.395 19.812,20.424 L20.035,20.428 C21.073,20.428 22.089,20.201 23.015,19.791 C22.683,20.316 22.483,21.004 22.431,22.107 C22.292,22.175 22.156,22.251 22.025,22.338 C21.565,22.644 21.44,23.265 21.747,23.725 C22.053,24.187 22.674,24.31 23.133,24.004 C23.675,23.642 24.344,23.613 24.925,23.924 C25.5,24.231 25.843,24.805 25.843,25.457 C25.843,26.095 25.511,26.663 24.956,26.977 C24.396,27.291 23.757,27.279 23.203,26.945 C22.728,26.658 22.115,26.813 21.83,27.285 C21.545,27.759 21.697,28.373 22.17,28.658 C22.346,28.764 22.528,28.85 22.713,28.925 C22.736,29.189 22.759,29.456 22.78,29.713 C23.042,32.917 23.269,35.684 25.293,37.707 C25.488,37.902 25.744,38 26,38 C26.256,38 26.512,37.902 26.707,37.707 C27.098,37.316 27.098,36.684 26.707,36.293 C25.203,34.789 25.013,32.477 24.773,29.549 C24.763,29.417 24.75,29.277 24.739,29.143 C25.152,29.071 25.557,28.934 25.939,28.719 C27.131,28.045 27.843,26.826 27.843,25.457 C27.843,24.056 27.105,22.823 25.87,22.161 C25.421,21.92 24.939,21.779 24.451,21.732 C24.54,20.898 24.794,20.674 25.372,20.178 C25.619,19.966 25.896,19.727 26.206,19.417 L26.215,19.403 C26.849,19.521 27.515,19.597 28.203,19.597 C29.039,19.597 29.888,19.506 30.686,19.319 C32.205,18.963 33.429,18.291 34.282,17.356 C35.431,17.946 36.776,17.993 37.985,17.441 C39.596,16.708 40.596,15.126 40.596,13.312 C40.596,11.653 39.715,10.131 38.296,9.339 L38.296,9.339 Z M37.157,15.621 C36.328,15.998 35.411,15.858 34.706,15.244 C34.483,15.049 34.182,14.96 33.891,15.011 C33.597,15.059 33.34,15.233 33.189,15.488 C32.514,16.629 31.207,17.143 30.229,17.372 C28.166,17.857 25.863,17.488 24.909,16.87 L24.829,16.838 L24.641,16.763 L24.459,16.725 L24.27,16.729 L24.083,16.762 L23.912,16.835 L23.743,16.943 L23.669,16.99 C22.684,17.945 21.313,18.488 19.873,18.425 C18.574,18.386 17.426,17.892 16.642,17.034 L16.549,16.967 L16.385,16.846 L16.214,16.774 L16.028,16.729 L15.84,16.726 L15.653,16.753 L15.468,16.827 L15.36,16.87 C14.21,17.614 11.522,17.911 9.356,17.165 C8.452,16.854 7.288,16.231 6.875,15.035 C6.773,14.739 6.538,14.509 6.241,14.411 C5.943,14.313 5.618,14.361 5.361,14.539 C4.648,15.031 3.764,15.084 2.996,14.682 C2.167,14.248 1.673,13.407 1.673,12.433 C1.673,11.479 2.152,10.646 2.954,10.203 C3.695,9.794 4.538,9.819 5.266,10.276 L5.268,10.277 C5.788,10.604 6.167,11.125 6.335,11.741 C6.456,12.187 6.86,12.479 7.3,12.479 L7.563,12.443 C8.096,12.298 8.41,11.748 8.265,11.216 C8.034,10.369 7.576,9.621 6.947,9.05 C7.235,8.391 7.837,7.808 8.69,7.374 C10.463,6.473 12.845,6.465 14.617,7.354 C15.113,7.602 15.712,7.4 15.959,6.908 C16.207,6.414 16.007,5.813 15.514,5.566 C14.938,5.278 14.321,5.062 13.683,4.916 C15.243,3.096 17.588,2 20.135,2 C22.686,2 25.037,3.101 26.597,4.927 C25.955,5.073 25.329,5.278 24.748,5.57 C24.254,5.818 24.055,6.42 24.303,6.913 C24.552,7.407 25.153,7.605 25.646,7.357 C26.505,6.925 27.427,6.722 28.324,6.692 L28.369,6.698 L28.399,6.695 C29.868,6.662 31.264,7.09 32.2,7.744 C32.787,8.154 33.45,8.822 33.512,9.769 C33.024,10.165 32.621,10.665 32.331,11.239 C32.082,11.732 32.28,12.334 32.773,12.583 C32.917,12.656 33.071,12.69 33.223,12.69 C33.588,12.69 33.94,12.489 34.116,12.142 C34.326,11.726 34.638,11.382 35.019,11.147 C35.748,10.697 36.588,10.676 37.321,11.085 C38.119,11.53 38.596,12.363 38.596,13.312 C38.596,14.531 37.852,15.305 37.157,15.621 L37.157,15.621 Z" id="Fill-179"/><path d="M20,39 C20.552,39 21,38.553 21,38 L21,31 C21,30.447 20.552,30 20,30 C19.448,30 19,30.447 19,31 L19,38 C19,38.553 19.448,39 20,39" id="Fill-180"/></g></g></svg>