<svg width="164" height="48" viewBox="0 0 164 48" version="1.1" xmlns="http://www.w3.org/2000/svg"><title>appstore</title><g stroke="none" stroke-width="1" fill="none" fill-rule="evenodd"><rect fill="#000" x="0" y="0" width="164" height="48" rx="4"/><path d="M36.154 23.74c-.035-3.867 3.166-5.748 3.313-5.836-1.813-2.644-4.624-3.005-5.61-3.034-2.362-.248-4.65 1.413-5.854 1.413-1.226 0-3.078-1.39-5.073-1.348-2.568.04-4.97 1.527-6.288 3.835-2.72 4.708-.692 11.626 1.914 15.43 1.303 1.866 2.826 3.946 4.82 3.872 1.95-.08 2.677-1.242 5.03-1.242 2.332 0 3.016 1.242 5.05 1.196 2.092-.033 3.41-1.872 4.667-3.753 1.506-2.135 2.11-4.24 2.135-4.347-.048-.017-4.064-1.55-4.104-6.185zM32.314 12.367c1.048-1.31 1.766-3.096 1.567-4.907-1.517.068-3.416 1.05-4.51 2.333-.966 1.13-1.83 2.983-1.607 4.726 1.705.126 3.456-.862 4.55-2.153z" fill="#FFF"/><g fill="#FFF"><path d="M64.398 37.805h-2.725l-1.493-4.69h-5.19l-1.42 4.69h-2.654l5.142-15.97h3.175l5.165 15.97zm-4.668-6.66l-1.35-4.17c-.143-.425-.412-1.428-.805-3.007h-.048a127.1 127.1 0 0 1-.76 3.008l-1.326 4.17h4.29zM77.596 31.906c0 1.958-.532 3.506-1.596 4.642-.953 1.012-2.138 1.517-3.55 1.517-1.525 0-2.622-.543-3.288-1.633v6.042h-2.558v-12.4c0-1.23-.033-2.49-.095-3.784h2.25l.142 1.825h.048c.853-1.375 2.148-2.063 3.885-2.063 1.36 0 2.493.536 3.4 1.61.906 1.077 1.36 2.49 1.36 4.244zM74.99 32c0-1.122-.253-2.046-.76-2.774-.552-.757-1.295-1.136-2.226-1.136-.632 0-1.205.21-1.718.627a2.91 2.91 0 0 0-1.006 1.648 3.34 3.34 0 0 0-.12.78v1.92c0 .836.258 1.543.77 2.12.515.577 1.182.867 2.003.867.963 0 1.713-.374 2.25-1.114.537-.743.806-1.722.806-2.94zM90.84 31.906c0 1.958-.532 3.506-1.596 4.642-.954 1.012-2.137 1.517-3.55 1.517-1.526 0-2.623-.543-3.29-1.633v6.042h-2.557v-12.4c0-1.23-.033-2.49-.095-3.784h2.25l.143 1.825h.048c.852-1.375 2.147-2.063 3.885-2.063 1.358 0 2.492.536 3.4 1.61.906 1.077 1.362 2.49 1.362 4.244zM88.232 32c0-1.122-.253-2.046-.76-2.774-.552-.757-1.293-1.136-2.224-1.136-.63 0-1.205.21-1.72.627-.513.42-.848.97-1.005 1.648a3.42 3.42 0 0 0-.12.78v1.92c0 .836.258 1.543.77 2.12.513.576 1.18.867 2.003.867.965 0 1.715-.374 2.25-1.114.538-.743.806-1.722.806-2.94zM105.648 33.325c0 1.36-.475 2.465-1.42 3.318-1.04.93-2.49 1.398-4.35 1.398-1.718 0-3.096-.33-4.135-.994l.592-2.132c1.122.665 2.354.996 3.696.996.966 0 1.716-.218 2.25-.652.537-.434.808-1.015.808-1.74a2.23 2.23 0 0 0-.664-1.635c-.443-.442-1.175-.853-2.204-1.23-2.796-1.044-4.195-2.57-4.195-4.576 0-1.31.495-2.383 1.48-3.222.987-.837 2.295-1.256 3.923-1.256 1.453 0 2.664.252 3.625.757l-.642 2.086c-.904-.49-1.925-.735-3.068-.735-.902 0-1.61.222-2.116.664a1.9 1.9 0 0 0-.642 1.447c0 .63.246 1.152.735 1.563.424.378 1.2.79 2.32 1.23 1.375.555 2.386 1.2 3.032 1.943.652.74.976 1.666.976 2.77zM114.128 28.21h-2.82v5.59c0 1.422.497 2.132 1.493 2.132.458 0 .838-.04 1.138-.12l.07 1.944c-.504.188-1.167.283-1.99.283-1.01 0-1.8-.31-2.37-.926-.567-.617-.852-1.65-.852-3.105v-5.805h-1.68v-1.92h1.68v-2.11l2.512-.757v2.867h2.82v1.925zM126.827 31.952c0 1.77-.507 3.224-1.517 4.36-1.057 1.17-2.464 1.753-4.217 1.753-1.692 0-3.037-.56-4.04-1.68-1.003-1.122-1.505-2.535-1.505-4.24 0-1.785.518-3.247 1.552-4.383 1.035-1.138 2.43-1.706 4.183-1.706 1.69 0 3.047.56 4.074 1.682.98 1.087 1.47 2.49 1.47 4.214zm-2.652.06c0-1.056-.228-1.96-.685-2.718-.537-.914-1.305-1.37-2.3-1.37-1.024 0-1.81.456-2.346 1.37-.458.758-.686 1.678-.686 2.765 0 1.055.228 1.962.686 2.717.554.915 1.325 1.372 2.325 1.372.977 0 1.744-.468 2.298-1.396.47-.775.707-1.686.707-2.743zM135.146 28.54a4.452 4.452 0 0 0-.806-.07c-.9 0-1.596.337-2.086 1.02-.424.6-.638 1.357-.638 2.273v6.042h-2.558v-7.89c0-1.325-.026-2.535-.075-3.624h2.23l.092 2.204h.07c.272-.757.697-1.368 1.28-1.825.57-.413 1.186-.618 1.85-.618.236 0 .45.017.64.047v2.44zM146.588 31.502a6 6 0 0 1-.093 1.16h-7.675c.028 1.138.4 2.01 1.113 2.61.647.535 1.483.804 2.51.804 1.137 0 2.174-.18 3.106-.544l.4 1.775c-1.09.475-2.376.71-3.86.71-1.786 0-3.188-.524-4.208-1.573-1.017-1.05-1.527-2.46-1.527-4.23 0-1.734.474-3.18 1.423-4.333.994-1.23 2.336-1.846 4.026-1.846 1.66 0 2.916.616 3.77 1.847.675.976 1.014 2.186 1.014 3.622zm-2.44-.663c.02-.76-.15-1.415-.496-1.968-.443-.713-1.124-1.068-2.038-1.068-.836 0-1.518.347-2.036 1.043-.426.553-.68 1.218-.757 1.99l5.33.002z"/></g><g fill="#FFF"><path d="M54.253 16.19c-.71 0-1.327-.036-1.84-.094v-7.72a13.927 13.927 0 0 1 2.167-.164c2.934 0 4.285 1.443 4.285 3.796 0 2.715-1.596 4.18-4.612 4.18zm.43-6.988c-.396 0-.733.024-1.013.08v5.87c.15.024.442.035.85.035 1.922 0 3.016-1.094 3.016-3.144 0-1.827-.99-2.84-2.853-2.84zM63.076 16.248c-1.654 0-2.726-1.235-2.726-2.91 0-1.748 1.095-2.994 2.82-2.994 1.63 0 2.724 1.176 2.724 2.9 0 1.77-1.13 3.004-2.818 3.004zm.048-4.985c-.91 0-1.49.85-1.49 2.038 0 1.166.593 2.016 1.478 2.016.884 0 1.478-.91 1.478-2.04 0-1.15-.582-2.013-1.466-2.013zM75.324 10.46l-1.77 5.66H72.4l-.732-2.458a18.635 18.635 0 0 1-.455-1.828h-.024c-.094.617-.27 1.235-.455 1.828l-.78 2.458H68.79l-1.666-5.66h1.293l.64 2.69a38 38 0 0 1 .385 1.818h.024c.092-.477.243-1.072.465-1.805l.805-2.7h1.025l.77 2.642c.185.64.336 1.27.454 1.864h.034c.08-.583.21-1.2.384-1.865l.687-2.643 1.234-.002zM81.84 16.12h-1.258v-3.25c0-1-.384-1.502-1.14-1.502-.746 0-1.258.64-1.258 1.386v3.366h-1.258v-4.042c0-.5-.012-1.037-.047-1.62h1.106l.058.875h.035c.338-.605 1.024-.99 1.793-.99 1.188 0 1.968.91 1.968 2.388v3.39zM85.308 16.12h-1.26V7.864h1.26v8.256zM89.893 16.248c-1.652 0-2.725-1.235-2.725-2.91 0-1.748 1.094-2.994 2.818-2.994 1.63 0 2.725 1.176 2.725 2.9.002 1.77-1.128 3.004-2.817 3.004zm.047-4.985c-.908 0-1.49.85-1.49 2.038 0 1.166.595 2.016 1.477 2.016.885 0 1.478-.91 1.478-2.04 0-1.15-.58-2.013-1.465-2.013zM97.67 16.12l-.092-.652h-.034c-.384.524-.944.78-1.654.78-1.014 0-1.734-.71-1.734-1.666 0-1.396 1.21-2.12 3.307-2.12v-.103c0-.746-.395-1.12-1.175-1.12-.558 0-1.048.14-1.478.42l-.256-.826c.523-.327 1.176-.49 1.943-.49 1.478 0 2.225.78 2.225 2.34v2.086c0 .57.025 1.014.08 1.35H97.67zm-.174-2.82c-1.396 0-2.097.34-2.097 1.142 0 .594.36.884.862.884.64 0 1.234-.488 1.234-1.152V13.3zM104.828 16.12l-.058-.91h-.035c-.36.688-.97 1.038-1.817 1.038-1.364 0-2.375-1.2-2.375-2.888 0-1.77 1.048-3.017 2.478-3.017.758 0 1.295.255 1.597.77h.025v-3.25h1.26v6.73c0 .55.012 1.06.046 1.527h-1.12zm-.186-3.33c0-.792-.524-1.468-1.324-1.468-.933 0-1.503.827-1.503 1.99 0 1.142.592 1.923 1.477 1.923.79 0 1.35-.687 1.35-1.502v-.943zM113.882 16.248c-1.652 0-2.724-1.235-2.724-2.91 0-1.748 1.095-2.994 2.818-2.994 1.63 0 2.725 1.176 2.725 2.9.002 1.77-1.127 3.004-2.818 3.004zm.047-4.985c-.908 0-1.49.85-1.49 2.038 0 1.166.594 2.016 1.477 2.016.886 0 1.48-.91 1.48-2.04 0-1.15-.58-2.013-1.468-2.013zM123.464 16.12h-1.258v-3.25c0-1-.384-1.502-1.142-1.502-.745 0-1.256.64-1.256 1.386v3.366h-1.26v-4.042c0-.5-.01-1.037-.046-1.62h1.107l.058.875h.034c.338-.605 1.025-.99 1.793-.99 1.188 0 1.97.908 1.97 2.387v3.39zM131.926 11.404h-1.384v2.748c0 .7.242 1.048.732 1.048.222 0 .408-.024.558-.058l.035.955c-.244.093-.57.14-.976.14-.99 0-1.583-.547-1.583-1.98v-2.853h-.825v-.944h.825V9.424l1.235-.374v1.41h1.384v.944zM138.583 16.12h-1.256v-3.226c0-1.013-.383-1.525-1.14-1.525-.653 0-1.26.442-1.26 1.338v3.412h-1.257V7.864h1.257v3.4h.025c.396-.618.97-.92 1.702-.92 1.197 0 1.93.93 1.93 2.41v3.366zM145.404 13.592h-3.774c.024 1.072.733 1.677 1.783 1.677a4.25 4.25 0 0 0 1.525-.27l.196.875c-.535.233-1.165.35-1.898.35-1.77 0-2.818-1.12-2.818-2.853 0-1.736 1.073-3.04 2.676-3.04 1.446 0 2.353 1.072 2.353 2.69.004.22-.007.42-.043.57zm-1.153-.896c0-.874-.44-1.49-1.244-1.49-.722 0-1.293.628-1.375 1.49h2.62z"/></g></g></svg>