<svg width="164" height="48" viewBox="0 0 164 48" version="1.1" xmlns="http://www.w3.org/2000/svg"><title>playstore</title><defs><linearGradient x1="-.002%" y1="50%" x2="99.998%" y2="50%" id="a"><stop stop-color="#4BC3AE" offset="0%"/><stop stop-color="#DEE999" offset="100%"/></linearGradient><linearGradient x1="50.004%" y1="-.003%" x2="50.004%" y2="100.003%" id="b"><stop stop-color="#F87" offset="0%"/><stop stop-color="#FFB175" offset="61.21%"/><stop stop-color="#FFC774" offset="100%"/></linearGradient><linearGradient x1="49.998%" y1="-.002%" x2="49.998%" y2="100.003%" id="c"><stop stop-color="#207CB0" offset="0%"/><stop stop-color="#3CB2BF" offset="37.57%"/><stop stop-color="#58E9CE" offset="79.61%"/><stop stop-color="#63FFD4" offset="100%"/></linearGradient><linearGradient x1="49.997%" y1="0%" x2="49.997%" y2="100.005%" id="d"><stop stop-color="#EC403D" offset="0%"/><stop stop-color="#C93B75" offset="38.4%"/><stop stop-color="#A636AC" offset="79.88%"/><stop stop-color="#9934C2" offset="100%"/></linearGradient></defs><g stroke="none" stroke-width="1" fill="none" fill-rule="evenodd"><rect fill="#000" x="0" y="0" width="164" height="48" rx="4"/><g fill="#FFF"><path d="M113.675 35.292l-1.05.987c-.244.132-.485.287-.726.396-.73.33-1.473.414-2.133.414-.702 0-1.802-.045-2.924-.854-1.56-1.095-2.242-2.975-2.242-4.615 0-3.392 2.775-5.057 5.036-5.057.79 0 1.603.197 2.264.613 1.097.723 1.38 1.663 1.54 2.167l-5.167 2.08-1.692.13c.55 2.782 2.438 4.4 4.527 4.4 1.043 0 1.817-.34 2.527-.69 0 .002.142-.072.04.03zm-3.117-5.535c.42-.152.638-.283.638-.587 0-.875-.993-1.884-2.178-1.884-.88 0-2.526.68-2.526 3.045 0 .37.043.763.066 1.156l4-1.73z"/><path d="M102.874 35.122c0 .85.152.984.874 1.05.377.044.752.064 1.124.107l-.813.48h-3.873c.507-.655.595-.72.595-1.158v-.488l-.01-13.014h-1.71l1.647-.79h3.14c-.68.392-.883.632-.97 1.398l-.006 12.414z"/><path d="M96.868 27.637c.504.414 1.558 1.29 1.558 2.954 0 1.622-.918 2.386-1.843 3.11-.284.283-.615.593-.615 1.07 0 .484.332.747.57.942l.794.61c.965.812 1.845 1.556 1.845 3.068 0 2.06-2 4.135-5.78 4.135-3.184 0-4.724-1.51-4.724-3.13 0-.79.394-1.905 1.694-2.67 1.362-.83 3.208-.94 4.196-1.005-.31-.397-.66-.812-.66-1.49 0-.372.11-.593.22-.854-.24.023-.483.046-.703.046-2.33 0-3.65-1.732-3.65-3.44 0-1.006.462-2.122 1.41-2.93 1.252-1.03 2.746-1.206 3.933-1.206h4.528l-1.407.792h-1.365zm-1.557 9.718c-.178-.024-.287-.024-.504-.024-.2 0-1.386.044-2.306.352-.486.177-1.892.7-1.892 2.256 0 1.55 1.518 2.67 3.867 2.67 2.11 0 3.23-1.008 3.23-2.364-.002-1.116-.727-1.705-2.394-2.89zm.633-4.16c.508-.504.552-1.202.552-1.6 0-1.573-.942-4.025-2.77-4.025-.568 0-1.186.285-1.536.725-.372.456-.484 1.048-.484 1.617 0 1.466.858 3.897 2.746 3.897.55 0 1.143-.268 1.49-.614zM83.245 37.045c-3.493 0-5.362-2.71-5.362-5.163 0-2.866 2.35-5.32 5.69-5.32 3.23 0 5.255 2.52 5.255 5.166 0 2.583-2 5.317-5.583 5.317zm2.747-1.77c.532-.702.66-1.576.66-2.428 0-1.928-.92-5.605-3.646-5.605a3.07 3.07 0 0 0-1.98.744c-.86.766-1.013 1.728-1.013 2.672 0 2.163 1.073 5.73 3.736 5.73.86 0 1.737-.415 2.242-1.114zM71.55 37.045c-3.493 0-5.36-2.71-5.36-5.163 0-2.866 2.35-5.32 5.692-5.32 3.228 0 5.25 2.52 5.25 5.166 0 2.583-1.998 5.317-5.582 5.317zm2.75-1.77c.526-.702.658-1.576.658-2.428 0-1.928-.925-5.605-3.647-5.605-.727 0-1.45.283-1.976.744-.86.766-1.012 1.728-1.012 2.672 0 2.163 1.077 5.73 3.736 5.73.858 0 1.734-.415 2.24-1.114zM64.795 36.285l-2.946.672c-1.195.187-2.267.352-3.402.352-5.682 0-7.847-4.168-7.847-7.428 0-3.982 3.07-7.674 8.322-7.674 1.11 0 2.18.163 3.155.427 1.544.433 2.266.965 2.718 1.277l-1.712 1.62-.72.16.513-.817c-.697-.678-1.977-1.93-4.408-1.93-3.25 0-5.702 2.462-5.702 6.055 0 3.858 2.8 7.488 7.29 7.488 1.318 0 1.997-.264 2.614-.51V32.67l-3.11.166 1.65-.882h4.363l-.533.512c-.145.122-.163.163-.204.327-.02.187-.04.78-.04.99v2.502z"/></g><g fill="#FFF"><path d="M120.01 35.386v5.575h-1.113V26.775h1.112v1.615a4.424 4.424 0 0 1 3.583-1.873c2.755 0 4.612 2.083 4.612 5.38 0 3.275-1.857 5.4-4.612 5.4-1.45.002-2.75-.743-3.584-1.91zm7-3.488c0-2.485-1.3-4.38-3.605-4.38-1.432 0-2.8 1.12-3.396 2.098v4.54c.594.98 1.963 2.142 3.395 2.142 2.306 0 3.606-1.91 3.606-4.4zM129.723 37.043V22.857h1.11v14.186h-1.11zM143.307 40.043c.237.106.643.17.9.17.68 0 1.154-.276 1.58-1.255l.81-1.83-4.38-10.354h1.24l3.757 8.973 3.72-8.973h1.257L146.85 39.3c-.553 1.292-1.425 1.913-2.623 1.913-.36 0-.833-.064-1.11-.15l.19-1.02zM140.06 37.013c-.074-.356-.13-.67-.17-.932a6.113 6.113 0 0 1-.055-.8c-.38.558-.92 1.02-1.61 1.387-.69.367-1.346.548-2.246.548-1.084 0-1.924-.265-2.524-.803-.598-.538-.9-1.266-.9-2.188 0-.92.437-1.668 1.305-2.24.87-.573 1.993-.858 3.382-.858h2.593V29.85c0-.736-.252-1.313-.754-1.733-.503-.42-1.21-.63-2.128-.63-.838 0-1.517.193-2.035.57-.513.385-.772.863-.772 1.438h-1.137l-.024-.055c-.04-.775.315-1.456 1.073-2.043.753-.587 1.742-.882 2.957-.882 1.21 0 2.192.29 2.932.87.738.574 1.11 1.404 1.11 2.488v5.067c0 .364.016.715.062 1.058.047.343.122.685.22 1.016h-1.278zm-3.944-.807c.944 0 1.622-.21 2.317-.626.688-.414 1.157-.953 1.403-1.605v-1.972h-2.605c-.994 0-1.818.22-2.465.662-.65.44-.98.975-.98 1.596 0 .586.21 1.055.624 1.41.414.358.982.536 1.706.536z"/></g><path d="M30.964 23.78l-14.09-13.8c.365-.11.816-.05 1.303.21l17.2 9.266-1.47 1.44 1.47-1.44 5.896 3.174c1.19.64 1.19 1.69 0 2.333L35.4 28.125l-4.436-4.345zM16.012 11.444l.003 24.703c0 .776.328 1.287.837 1.458l14.113-13.824-14.09-13.8c-.525.16-.863.678-.863 1.463zm.84 26.16c.366.123.825.066 1.325-.203L35.4 28.125l-4.435-4.343-14.113 13.824z" opacity=".7" fill="#FFF"/><path d="M30.964 23.78l4.415-4.324h-.002l-4.414 4.324-14.09-13.8 14.09 13.802-14.112 13.824 14.112-13.824 4.435 4.343-4.436-4.345z"/><path d="M19.378 9.456L2.178.19C1.69-.07 1.237-.13.873-.02l14.09 13.8 4.414-4.324z" fill="url(#a)" transform="translate(16 10)"/><path d="M19.4 18.125l5.873-3.162c1.19-.644 1.19-1.692 0-2.333l-5.895-3.174-4.414 4.324 4.437 4.345z" fill="url(#b)" transform="translate(16 10)"/><path d="M.012 1.445l.003 24.703c0 .776.328 1.287.837 1.458l14.113-13.824L.875-.018C.35.14.01.66.01 1.444z" fill="url(#c)" transform="translate(16 10)"/><path d="M.852 27.606c.366.122.825.065 1.325-.204L19.4 18.125l-4.435-4.343L.852 27.606z" fill="url(#d)" transform="translate(16 10)"/><path d="M55.232 14.51h-2.48L52.236 16H51.08l2.416-6.398h.998L56.914 16h-1.16l-.522-1.49zm-2.167-.896h1.855l-.927-2.655-.928 2.654zM63.215 16h-1.11l-2.853-4.54V16H58.14V9.602h1.112l2.86 4.557V9.6h1.104V16zm1.815 0V9.602h1.89c.427 0 .818.07 1.17.215.354.143.657.348.91.613.254.265.45.585.59.96.142.375.212.794.212 1.257v.316c0 .463-.07.88-.208 1.255-.14.374-.337.692-.594.956a2.625 2.625 0 0 1-.927.61 3.245 3.245 0 0 1-1.206.216H65.03zm1.112-5.502v4.614h.725c.3 0 .567-.05.795-.147.23-.098.418-.24.57-.424.15-.184.264-.41.34-.676a3.28 3.28 0 0 0 .114-.9v-.326c0-.694-.15-1.224-.453-1.59-.3-.367-.74-.55-1.314-.55h-.778zm7.62 3.037h-1.24V16H71.41V9.602h2.25c.366 0 .693.04.98.125.287.083.53.206.727.37.198.162.348.363.45.603.103.24.154.52.154.835 0 .428-.102.786-.31 1.075a1.97 1.97 0 0 1-.862.665l1.437 2.668V16h-1.19l-1.284-2.465zm-1.24-.892h1.142c.2 0 .374-.027.523-.08.15-.052.274-.125.374-.22a.896.896 0 0 0 .225-.333c.05-.13.074-.27.074-.427 0-.164-.024-.312-.07-.446a.886.886 0 0 0-.588-.562 1.695 1.695 0 0 0-.542-.077h-1.14v2.145zm10.11.325c0 .486-.063.922-.19 1.307a2.848 2.848 0 0 1-.54.98c-.23.268-.51.474-.834.618a2.648 2.648 0 0 1-1.08.215c-.394 0-.753-.072-1.078-.215a2.398 2.398 0 0 1-.84-.618 2.843 2.843 0 0 1-.55-.98 4.067 4.067 0 0 1-.196-1.307v-.325c0-.487.065-.923.195-1.31s.31-.715.544-.984c.233-.27.512-.477.837-.62a2.637 2.637 0 0 1 1.078-.216c.396 0 .757.07 1.083.215.328.143.608.35.84.62.234.268.414.596.54.983.13.387.192.823.192 1.31v.325zm-1.11-.334c0-.358-.036-.673-.105-.947a2.02 2.02 0 0 0-.3-.688 1.305 1.305 0 0 0-.486-.42 1.45 1.45 0 0 0-.652-.143c-.237 0-.45.047-.642.142-.19.095-.352.234-.485.42a2.053 2.053 0 0 0-.307.687c-.072.274-.107.59-.107.947v.334c0 .357.035.674.107.95.072.274.175.505.31.69a1.333 1.333 0 0 0 1.134.566c.492 0 .87-.188 1.136-.563.265-.374.398-.922.398-1.642v-.334zM85.41 16h-1.106V9.602h1.107V16zm1.868 0V9.602h1.89c.427 0 .818.07 1.17.215.354.143.657.348.91.613.254.265.45.585.59.96.142.375.212.794.212 1.257v.316c0 .463-.07.88-.208 1.255-.14.374-.337.692-.594.956a2.625 2.625 0 0 1-.927.61 3.245 3.245 0 0 1-1.206.216H87.28zm1.112-5.502v4.614h.725c.3 0 .567-.05.795-.147.23-.098.418-.24.57-.424.15-.184.264-.41.34-.676a3.28 3.28 0 0 0 .114-.9v-.326c0-.694-.15-1.224-.453-1.59-.3-.367-.74-.55-1.314-.55h-.778zm11.59 4.012h-2.478l-.52 1.49H95.83l2.417-6.398h.997L101.666 16h-1.16l-.524-1.49zm-2.166-.896h1.854l-.927-2.655-.927 2.654zm6.186.01V16h-1.11V9.602h2.446c.372 0 .703.05.99.15.29.102.534.244.733.425.2.182.352.397.456.646.104.25.156.52.156.813 0 .31-.052.59-.156.835a1.654 1.654 0 0 1-.455.625c-.198.17-.442.3-.73.39a3.3 3.3 0 0 1-.992.138h-1.336zm0-.894h1.336c.214 0 .398-.026.552-.08.154-.05.28-.126.38-.223a.86.86 0 0 0 .218-.345c.045-.133.068-.28.068-.437 0-.15-.023-.293-.068-.43a.985.985 0 0 0-.218-.368 1.058 1.058 0 0 0-.38-.254 1.453 1.453 0 0 0-.552-.095h-1.336v2.232zm6.253.893V16h-1.112V9.602h2.448c.373 0 .703.05.992.15.288.102.532.244.73.425.2.182.352.397.456.646.104.25.156.52.156.813 0 .31-.052.59-.156.835a1.654 1.654 0 0 1-.455.625c-.2.17-.443.3-.73.39a3.3 3.3 0 0 1-.992.138h-1.335zm0-.893h1.336c.215 0 .4-.026.552-.08.154-.05.28-.126.38-.223a.86.86 0 0 0 .218-.345c.045-.133.068-.28.068-.437 0-.15-.023-.293-.068-.43a.985.985 0 0 0-.218-.368 1.058 1.058 0 0 0-.38-.254 1.453 1.453 0 0 0-.55-.095h-1.337v2.232zm12.988.238c0 .486-.064.922-.19 1.307a2.848 2.848 0 0 1-.54.98c-.23.268-.51.474-.834.618a2.648 2.648 0 0 1-1.082.215c-.393 0-.752-.072-1.077-.215a2.398 2.398 0 0 1-.84-.618 2.843 2.843 0 0 1-.55-.98 4.067 4.067 0 0 1-.195-1.307v-.325c0-.487.065-.923.195-1.31s.312-.715.545-.984c.233-.27.512-.477.837-.62a2.637 2.637 0 0 1 1.077-.216c.394 0 .755.07 1.082.215.327.143.607.35.84.62.232.268.413.596.54.983.127.387.19.823.19 1.31v.325zm-1.112-.334c0-.358-.033-.673-.102-.947a2.02 2.02 0 0 0-.3-.688 1.305 1.305 0 0 0-.487-.42 1.45 1.45 0 0 0-.65-.143c-.238 0-.452.047-.643.142-.19.095-.352.234-.485.42a2.053 2.053 0 0 0-.308.687c-.072.274-.108.59-.108.947v.334c0 .357.036.674.108.95.072.274.175.505.31.69a1.333 1.333 0 0 0 1.134.566c.492 0 .87-.188 1.136-.563.265-.374.397-.922.397-1.642v-.334zM129.927 16h-1.112l-2.852-4.54V16h-1.11V9.602h1.11l2.86 4.557V9.6h1.104V16z" fill="#FFF"/></g></svg>