<?xml version="1.0" encoding="utf-8"?>
<!-- Generator: Adobe Illustrator 16.0.1, SVG Export Plug-In . SVG Version: 6.00 Build 0)  -->
<!DOCTYPE svg PUBLIC "-//W3C//DTD SVG 1.1//EN" "http://www.w3.org/Graphics/SVG/1.1/DTD/svg11.dtd">
<svg version="1.1" id="Слой_1" xmlns="http://www.w3.org/2000/svg" xmlns:xlink="http://www.w3.org/1999/xlink" x="0px" y="0px"
	 width="512px" height="512px" viewBox="0 0 512 512" enable-background="new 0 0 512 512" xml:space="preserve">
<g>
	<path fill="#F1EBD8" d="M507.087,257.045c0,137.833-111.924,249.563-250,249.563c-138.063,0-250-111.73-250-249.563
		c0-137.831,111.937-249.567,250-249.567C395.163,7.478,507.087,119.214,507.087,257.045z"/>
	<g>
		<g>
			<path fill="#8CC23E" d="M142.258,117.736c2.477,3.828,7.705,5.907,12.076,4.627l17.243-5.077c4.563-1.345,6.5-5.87,4.309-10.09
				l-7.265-14.018c-2.186-4.233-7.191-5.544-11.164-2.947l-15.268,9.952c-3.049,1.993-4.464,5.656-3.956,9.143l4.012,8.426
				C142.251,117.745,142.251,117.739,142.258,117.736z"/>
		</g>
		<g>
			<path fill="#8CC23E" d="M266.059,109.588c0.621-3.561-0.794-7.373-3.937-9.415l-15.243-9.948
				c-3.986-2.597-8.997-1.289-11.176,2.944l-7.259,14.021c-2.191,4.228-0.266,8.746,4.309,10.091l17.23,5.073
				c4.384,1.286,9.611-0.799,12.088-4.621c0.037,0.041,0.074,0.089,0.112,0.127l3.911-8.228
				C266.084,109.616,266.071,109.601,266.059,109.588z"/>
		</g>
		<g>
			<path fill="#58595B" d="M266.096,109.631l-3.911,8.228c6.86,7.273,16.609,23.321,13.25,53.779l8.469,1.345
				C288.095,135.958,274.397,117.271,266.096,109.631z"/>
		</g>
		<g>
			<path fill="#58595B" d="M128.908,171.729c-3.415-30.669,6.458-46.747,13.337-53.978l-4.012-8.426
				c0.013,0.09,0.013,0.187,0.031,0.276c-8.282,7.614-22.029,26.281-17.857,63.312l8.897-1.078
				C129.169,171.799,129.039,171.754,128.908,171.729z"/>
		</g>
		<g>
			<g>
				<path fill="#298EBF" d="M400.608,194.839c0-25.36-20.589-45.908-45.99-45.908c-25.395,0-45.983,20.557-45.983,45.908
					c0,3.57,0.453,7.025,1.223,10.363c-0.013,0.006-0.019,0.013-0.024,0.022c5.146,18.814,21.365,33.098,41.233,35.355
					c1.174,0.086,2.354,0.176,3.552,0.176C380.02,240.755,400.608,220.199,400.608,194.839z M336.655,194.839
					c0-9.912,8.041-17.932,17.963-17.932s17.969,8.021,17.969,17.932c0,9.907-8.047,17.935-17.969,17.935
					S336.655,204.746,336.655,194.839z"/>
			</g>
		</g>
		<g>
			<path fill="#8C0D74" d="M157.792,266.128c0.614,6.831,4.464,13.265,10.915,16.872c4.409,2.467,8.928,4.363,13.529,5.802
				c7.104,1.642,14.617,2.541,22.396,2.541c2.565,0,5.104-0.099,7.6-0.285c7.426-1.19,14.672-3.595,21.657-7.314
				c6.395-3.408,10.313-9.57,11.183-16.239c30.38-27.415,44.413-76.824,45.213-79.712c1.634-5.932-1.161-12.028-6.389-14.801
				c0-0.007,0-0.007,0.006-0.007l-8.469-1.345c-0.006,0.028-0.006,0.056-0.012,0.081c-4.683,0.893-8.706,4.298-10.065,9.198
				c-4.136,14.835-16.1,45.496-33.864,63.873c-5.65-2.179-12.151-2.073-17.914,0.988c-3.756,2.003-7.426,3.016-11.195,3.094h-0.782
				c-3.967-0.084-7.842-1.203-11.816-3.419c-5.625-3.154-12.027-3.427-17.67-1.438c-17.367-18.458-29.077-48.463-33.144-63.098
				c-1.329-4.741-5.172-8.073-9.667-9.083l-8.897,1.078c0,0.028,0,0.056,0,0.09c-5.215,2.774-8.009,8.867-6.376,14.802
				C114.819,190.63,128.43,238.471,157.792,266.128z"/>
		</g>
		<g>
			<path fill="#414042" d="M324.113,227.715c-6.309-6.056-11.064-13.708-13.592-22.305c-18.627,14.684-38.645,45.64-23.73,93.091
				c9.754,31.023,6.768,62.609-7.817,82.432c-6.179,8.404-17.311,18.433-35.167,18.433c-23.104,0-46.003-12.16-55.676-29.577
				c-3.564-6.434-6.526-16.159-0.373-25.996c12.934-20.665,19.782-40.016,23.259-52.66c-2.104,0.124-4.234,0.211-6.383,0.211
				c-6.917,0-13.635-0.7-20.049-1.984c-3.284,10.588-8.997,25.153-18.763,40.754c-9.866,15.763-9.991,34.778-0.311,52.184
				c14.25,25.654,45.71,42.897,78.302,42.897c22.377,0,42.284-10.295,56.024-28.977c19.651-26.727,24.004-66.154,11.643-105.444
				C300.525,255.932,314.042,236.646,324.113,227.715z"/>
		</g>
	</g>
</g>
</svg>
