<?xml version="1.0" encoding="utf-8"?>
<!-- Generator: Adobe Illustrator 16.0.1, SVG Export Plug-In . SVG Version: 6.00 Build 0)  -->
<!DOCTYPE svg PUBLIC "-//W3C//DTD SVG 1.1//EN" "http://www.w3.org/Graphics/SVG/1.1/DTD/svg11.dtd">
<svg version="1.1" id="Слой_1" xmlns="http://www.w3.org/2000/svg" xmlns:xlink="http://www.w3.org/1999/xlink" x="0px" y="0px"
	 width="512px" height="512px" viewBox="0 0 512 512" enable-background="new 0 0 512 512" xml:space="preserve">
<g>
	<path fill="#2BACBC" d="M507.957,257.041c0,138.796-112.508,251.305-251.305,251.305c-138.785,0-251.305-112.509-251.305-251.305
		c0-138.784,112.52-251.305,251.305-251.305C395.449,5.736,507.957,118.257,507.957,257.041z"/>
	<g>
		<path fill="#FFFFFF" d="M61.92,253.795c0,0,189.434-192.972,389.464,1.773C451.384,255.568,270.814,459.164,61.92,253.795z"/>
		<path fill="#21A9CC" d="M339.851,256.442c0,45.475-36.837,82.311-82.317,82.311c-45.451,0-82.319-36.836-82.319-82.311
			c0-45.463,36.868-82.325,82.319-82.325C303.014,174.118,339.851,210.979,339.851,256.442z"/>
		<path d="M315.746,256.442c0,32.155-26.052,58.207-58.213,58.207c-32.132,0-58.189-26.052-58.189-58.207
			c0-32.144,26.058-58.196,58.189-58.196C289.694,198.247,315.746,224.298,315.746,256.442z"/>
		<path fill="#FFFFFF" d="M249.35,236.968c0,7.203-5.842,13.058-13.057,13.058c-7.222,0-13.063-5.855-13.063-13.058
			c0-7.202,5.842-13.057,13.063-13.057C243.508,223.911,249.35,229.766,249.35,236.968z"/>
	</g>
</g>
</svg>
