<?xml version="1.0" encoding="utf-8"?>
<!-- Generator: Adobe Illustrator 16.0.1, SVG Export Plug-In . SVG Version: 6.00 Build 0)  -->
<!DOCTYPE svg PUBLIC "-//W3C//DTD SVG 1.1//EN" "http://www.w3.org/Graphics/SVG/1.1/DTD/svg11.dtd">
<svg version="1.1" id="Слой_1" xmlns="http://www.w3.org/2000/svg" xmlns:xlink="http://www.w3.org/1999/xlink" x="0px" y="0px"
	 width="512px" height="512px" viewBox="0 0 512 512" enable-background="new 0 0 512 512" xml:space="preserve">
<g>
	<path fill="#F96334" d="M505.348,255.303c0,137.83-111.536,249.565-249.134,249.565c-137.579,0-249.127-111.735-249.127-249.564
		c0-137.831,111.548-249.566,249.127-249.566C393.812,5.738,505.348,117.474,505.348,255.303z"/>
	<path fill="#FFFFFF" d="M329.339,89.507c-42.249-1.627-38.549,17.569-73.125,18.121c-34.563-0.552-30.862-19.748-73.111-18.121
		c-75.352,2.904-45.847,96.2-36.84,120.245c26.086,69.669,26.26,87.049,25.257,119.261c-2.908,92.186,10.866,92.204,32.596,92.186
		c15.258-0.012,19.974-78.228,19.157-106.646c-1.175-40.332,63.682-46.14,65.896,0c1.362,28.389,3.887,106.635,19.157,106.646
		c21.731,0.019,35.504,0,32.596-92.186c-1.015-32.212-0.829-49.592,25.258-119.261C375.176,185.707,404.688,92.411,329.339,89.507z
		 M311.135,132.959c-30.084,8.839-65.625,20.523-88.951,42.957c-6.064,5.833-15.295-3.394-9.22-9.239
		c8.254-7.933,17.895-14.63,28.227-20.411c-2.189-2.457-4.59-4.729-7.065-6.904c-7.673-6.753-16.954-11.159-26.978-12.994
		c-8.266-1.516-4.753-14.097,3.465-12.595c16.619,3.043,31.915,13.155,42.397,26.419c17.844-8.455,37.012-14.646,54.672-19.828
		C315.763,117.991,319.19,130.595,311.135,132.959z"/>
</g>
</svg>
