<?xml version="1.0" encoding="utf-8"?>
<!-- Generator: Adobe Illustrator 16.0.1, SVG Export Plug-In . SVG Version: 6.00 Build 0)  -->
<!DOCTYPE svg PUBLIC "-//W3C//DTD SVG 1.1//EN" "http://www.w3.org/Graphics/SVG/1.1/DTD/svg11.dtd">
<svg version="1.1" id="Слой_1" xmlns="http://www.w3.org/2000/svg" xmlns:xlink="http://www.w3.org/1999/xlink" x="0px" y="0px"
	 width="512px" height="512px" viewBox="0 0 512 512" enable-background="new 0 0 512 512" xml:space="preserve">
<g>
	<path fill="#F96334" d="M507.939,259.115c-1.609,139.259-115.416,250.841-254.214,249.213
		C114.952,506.711,3.754,392.499,5.365,253.246C6.988,113.982,120.807,2.4,259.579,4.015
		C398.365,5.638,509.563,119.85,507.939,259.115z"/>
	<g>
		<path fill="#FFFFFF" d="M308.438,304.785c0,25.816-23.854,46.747-53.289,46.747s-53.29-20.931-53.29-46.747
			s23.855-46.748,53.29-46.748S308.438,278.969,308.438,304.785z"/>
		<g>
			<polygon fill="#CE2A5B" points="427.838,143.781 375.109,111.276 298.851,230.217 372.838,230.217 			"/>
			<path fill="#8CC23E" d="M232.13,187.153c-28.911,28.159-24.217,64.146-15.38,75.293c0.413-0.738,0.824-1.427,1.224-2.179
				c1.947-3.52,4.219-7.103,6.578-10.81c2.334-3.683,4.993-7.403,7.677-11.148c1.349-1.892,2.846-3.733,4.307-5.562l2.196-2.794
				c0.961-1.165,1.611-1.816,2.422-2.743l4.644-5.149c1.672-1.69,3.333-3.369,4.968-5.023c3.333-3.344,6.616-6.463,9.899-9.344
				c6.479-5.912,12.771-11.085,18.275-15.432c10.997-8.643,18.999-13.641,18.999-13.641s-1.411,1.867-3.907,5.136
				c-2.521,3.244-6.204,7.741-10.648,13.127c-2.259,2.655-4.693,5.523-7.265,8.555c-2.609,3.006-5.355,6.163-8.201,9.432
				c-2.796,3.232-5.681,6.564-8.614,9.971c-2.933,3.269-5.866,6.827-8.837,10.422c-2.771,3.319-5.442,7.127-8.214,10.584
				c-2.646,3.645-7.552,9.219-10.161,12.652c-3.17,4.107-5.28,6.538-7.14,9.444c-6.142,10.546-9.774,21.507-11.859,32.681
				l10.174,4.496c1.772-11.448,5.343-22.571,11.484-33.106c0.25-0.413,0.287-0.802,0.4-1.202
				c14.979,2.467,36.587-1.315,57.059-27.595c30.159-38.692,23.668-59.161,40.296-93.069
				C313.443,162.389,263.624,156.514,232.13,187.153z"/>
			<path fill="#8CC23E" d="M206.428,273.031c0.013-0.012,0.05-0.025,0.075-0.037c-3.408-3.22-6.965-6.651-10.61-10.347
				c-2.996-3.106-6.167-6.188-9.25-9.482c-3.171-3.093-6.279-6.551-9.438-9.507c-3.382-3.207-6.715-6.389-10.024-9.27
				c-3.332-3.019-6.591-5.988-9.761-8.856c-3.22-2.894-6.329-5.687-9.275-8.342c-2.92-2.706-5.705-5.249-8.238-7.603
				c-5.068-4.798-9.288-8.831-12.171-11.737c-2.871-2.943-4.506-4.622-4.506-4.622s8.551,3.983,20.522,11.224
				c5.979,3.632,12.844,8.017,19.998,13.089c3.608,2.455,7.24,5.161,10.96,8.067c1.822,1.453,3.682,2.906,5.53,4.384l5.243,4.534
				c0.924,0.827,1.635,1.378,2.721,2.43l2.534,2.493c1.686,1.667,3.37,3.307,4.943,5.011c3.133,3.395,6.205,6.764,8.975,10.146
				c2.796,3.369,5.48,6.651,7.839,9.908c0.5,0.702,0.974,1.341,1.46,2.017c7.452-12.138,7.752-48.438-24.379-72.864
				c-34.952-26.58-83.699-14.656-104.108-24.488c20.609,31.641,16.653,52.772,51.268,87.469
				c23.143,23.224,44.751,24.665,59.306,20.631c8.027,7.753,14.181,16.659,18.937,26.292l5.342-12.939
				C216.402,284.418,211.907,278.48,206.428,273.031z"/>
			<rect x="116.788" y="378.607" fill="#CE2A5B" width="276.447" height="22.46"/>
			<polygon fill="#FCD112" points="92.608,240.076 115.977,367.053 393.396,367.053 421.633,240.076 			"/>
			<polygon fill="#FFFFFF" points="293.933,295.278 268.83,295.278 268.83,270.088 245.412,270.088 245.412,295.278 
				220.321,295.278 220.321,318.777 245.412,318.777 245.412,343.966 268.83,343.966 268.83,318.777 293.933,318.777 			"/>
		</g>
	</g>
</g>
</svg>
