<?xml version="1.0" encoding="utf-8"?>
<!-- Generator: Adobe Illustrator 16.0.1, SVG Export Plug-In . SVG Version: 6.00 Build 0)  -->
<!DOCTYPE svg PUBLIC "-//W3C//DTD SVG 1.1//EN" "http://www.w3.org/Graphics/SVG/1.1/DTD/svg11.dtd">
<svg version="1.1" id="Слой_1" xmlns="http://www.w3.org/2000/svg" xmlns:xlink="http://www.w3.org/1999/xlink" x="0px" y="0px"
	 width="512px" height="512px" viewBox="0 0 512 512" enable-background="new 0 0 512 512" xml:space="preserve">
<g>
	<path fill="#23566D" d="M507.087,254.867c0,138.07-112.119,250-250.435,250c-138.305,0-250.435-111.931-250.435-250
		c0-138.069,112.13-250,250.435-250C394.968,4.867,507.087,116.797,507.087,254.867z"/>
	<g>
		
			<linearGradient id="SVGID_1_" gradientUnits="userSpaceOnUse" x1="741.248" y1="391.8662" x2="827.0345" y2="422.0737" gradientTransform="matrix(-0.2461 0.9693 -0.9693 -0.2461 893.2896 -456.0825)">
			<stop  offset="0" style="stop-color:#F52732"/>
			<stop  offset="0.6061" style="stop-color:#BD1B25"/>
			<stop  offset="1" style="stop-color:#9E191F"/>
		</linearGradient>
		<path fill-rule="evenodd" clip-rule="evenodd" fill="url(#SVGID_1_)" d="M424.32,280.812L424.32,280.812
			c15.444-23.333,8.956-55.034-14.412-70.444l-150.924-99.531c-23.355-15.413-55.108-8.94-70.552,14.393l0,0
			c-15.443,23.339-8.956,55.021,14.411,70.45L353.756,295.2C377.124,310.605,408.889,304.135,424.32,280.812z"/>
		<path fill-rule="evenodd" clip-rule="evenodd" fill="#EB1B24" d="M342.38,165.835l-83.396-55
			c-23.355-15.413-55.108-8.94-70.552,14.393l0,0c-15.443,23.339-8.956,55.021,14.411,70.45l84.459,55.683
			c14.984-5.337,29.757-16.857,40.566-33.188l0,0C339.14,201.131,343.916,182.168,342.38,165.835z"/>
		<path fill-rule="evenodd" clip-rule="evenodd" fill="#EC8893" d="M332.932,210.088l56.525,37.751
			c7.402,4.927,17.391,2.94,22.349-4.427c4.927-7.391,2.948-17.354-4.435-22.293l-64.798-43.281
			C341.732,188.354,338.518,199.433,332.932,210.088z"/>
		<path fill-rule="evenodd" clip-rule="evenodd" fill="#F3DDB7" d="M318.59,166.944l-79.484-53.094
			c-7.395-4.936-17.397-2.952-22.335,4.424c-4.945,7.367-2.961,17.345,4.428,22.301l87.6,58.51
			C314.415,188.471,317.675,177.438,318.59,166.944z"/>
		<path fill-rule="evenodd" clip-rule="evenodd" fill="#901515" d="M146.978,368.39c36.573,0,66.396-29.769,66.396-66.274
			c0-36.5-29.824-66.27-66.396-66.27c-36.567,0-66.39,29.77-66.39,66.27C80.588,338.621,110.411,368.39,146.978,368.39z"/>
		<linearGradient id="SVGID_2_" gradientUnits="userSpaceOnUse" x1="200.644" y1="416.5107" x2="131.6374" y2="269.42">
			<stop  offset="0" style="stop-color:#B3B3B3"/>
			<stop  offset="1" style="stop-color:#F3F1EA"/>
		</linearGradient>
		<path fill-rule="evenodd" clip-rule="evenodd" fill="url(#SVGID_2_)" d="M146.978,242.723c11.643,0,22.522,3.343,31.696,9.121
			l-68.878,96.64c-13.615-10.89-22.323-27.617-22.323-46.362C87.473,269.318,114.119,242.723,146.978,242.723L146.978,242.723z
			 M184.166,255.762c13.604,10.875,22.317,27.607,22.317,46.359c0,32.793-26.646,59.395-59.505,59.395
			c-11.637,0-22.504-3.343-31.684-9.126L184.166,255.762z"/>
		<polygon fill-rule="evenodd" clip-rule="evenodd" fill="#901515" points="178.674,251.843 109.796,348.483 109.074,353.296 
			182.935,251.107 		"/>
		<linearGradient id="SVGID_3_" gradientUnits="userSpaceOnUse" x1="336.79" y1="454.0068" x2="278.1415" y2="328.9948">
			<stop  offset="0" style="stop-color:#696B6B"/>
			<stop  offset="1" style="stop-color:#F3F1EA"/>
		</linearGradient>
		<path fill-rule="evenodd" clip-rule="evenodd" fill="url(#SVGID_3_)" d="M291.172,306.306c9.902,0,19.133,2.841,26.938,7.753
			l-58.527,82.129c-11.569-9.254-18.977-23.471-18.977-39.402C240.605,328.904,263.258,306.306,291.172,306.306L291.172,306.306z
			 M322.775,317.39c11.575,9.237,18.97,23.458,18.97,39.396c0,27.872-22.646,50.486-50.573,50.486
			c-9.89,0-19.125-2.852-26.933-7.766L322.775,317.39z"/>
		<path fill-rule="evenodd" clip-rule="evenodd" fill="#FFFFFF" d="M330.469,167.264l-71.577-47.191
			c-20.053-13.241-47.296-7.694-60.537,12.34l0,0c-13.268,20.024-7.694,47.223,12.358,60.448l72.485,47.794
			c12.856-4.576,25.526-14.468,34.806-28.481l0,0C327.682,197.558,331.775,181.274,330.469,167.264z"/>
	</g>
</g>
</svg>
