<?xml version="1.0" encoding="UTF-8"?>
<!DOCTYPE svg PUBLIC "-//W3C//DTD SVG 1.1//EN" "http://www.w3.org/Graphics/SVG/1.1/DTD/svg11.dtd">
<!-- Creator: CorelDRAW X7 -->
<svg xmlns="http://www.w3.org/2000/svg" xml:space="preserve" width="65.0238mm" height="86.6986mm" version="1.1" style="shape-rendering:geometricPrecision; text-rendering:geometricPrecision; image-rendering:optimizeQuality; fill-rule:evenodd; clip-rule:evenodd"
viewBox="0 0 6502 8670"
 xmlns:xlink="http://www.w3.org/1999/xlink"
 baseProfile="tiny"
 xmlns:a="http://ns.adobe.com/AdobeSVGViewerExtensions/3.0/">
 <defs>
  <style type="text/css">
   <![CDATA[
    .fil1 {fill:#616161}
    .fil2 {fill:#7B7B7B}
    .fil0 {fill:white}
   ]]>
  </style>
 </defs>
 <g id="Слой_x0020_1">
  <metadata id="CorelCorpID_0Corel-Layer"/>
  <path id="_139737560_1_" class="fil0" d="M5669 4634l0 0 32 -228 -5 0c61,-539 74,-1082 63,-1624 -7,-312 -26,-622 -45,-934l-338 92c-74,14 -146,22 -222,30 -72,2 -141,0 -215,-6 -71,-10 -137,-24 -206,-39 -69,-22 -135,-45 -201,-75 -69,-31 -133,-68 -199,-108 -66,-45 -129,-93 -193,-143 -66,-55 -129,-116 -190,-177 -88,-93 -170,-188 -249,-291 -64,-85 -124,-170 -183,-257 -92,-143 -177,-291 -264,-439 -87,148 -175,294 -265,439 -58,87 -119,172 -182,257 -80,100 -162,196 -249,291 -64,61 -124,119 -191,177 -63,50 -127,98 -195,143 -66,40 -130,74 -199,108 -66,30 -132,53 -201,75 -69,18 -135,31 -206,39 -72,6 -140,8 -215,6l-148 -16c-143,-27 -277,-66 -418,-104 -16,284 -34,567 -42,852 -13,569 0,1138 63,1704l-2 0 32 228 2 0c29,201 64,402 106,601 34,150 74,301 116,452l93 286c50,137 103,270 164,402l124 251 138 238 151 223 167 206 179 193 194 177 209 162 222 143 235 127c106,47 212,95 320,137l196 -79c125,-58 241,-117 360,-183l222 -143 209 -161 194 -177 179 -193 167 -207 151 -222 138 -238 124 -251c58,-133 111,-265 164,-403 48,-143 93,-285 135,-431 40,-153 74,-307 106,-460 24,-154 47,-299 68,-450l0 0z"/>
  <polygon id="_139738592_1_" class="fil1" points="1031,4727 1058,4885 1087,5041 1119,5192 1153,5343 1190,5489 1230,5631 1275,5769 1320,5907 1370,6039 1423,6166 1476,6293 1534,6415 1595,6531 1661,6647 1727,6759 1799,6864 1873,6970 1949,7068 2029,7166 2111,7259 2198,7346 2288,7431 2381,7513 2476,7589 2577,7663 2680,7735 2786,7798 2897,7862 3010,7920 3127,7973 3251,8023 3376,7973 3492,7920 3606,7862 3714,7798 3823,7735 3926,7663 4024,7589 4122,7513 4214,7431 4304,7346 4389,7259 4474,7166 4553,7068 4630,6970 4704,6864 4775,6759 4841,6647 4905,6531 4966,6415 5024,6293 5079,6166 5132,6039 5180,5907 5228,5769 5270,5631 5310,5489 5349,5343 5384,5192 5415,5041 5445,4885 5468,4727 5487,4594 1013,4594 "/>
  <path id="_139628432_1_" class="fil2" d="M2947 1247l-66 82 -66 80 -67 74 -66 71 -66 66 -69 64 -68 61 -72 55 -71 53 -72 48 -71 42 -74 40 -74 37 -74 32 -77 29 -77 23 -77 19 -79 16 -79 10 -80 8 -82 3 -82 -3 -82 -5 -82 -10 -84 -16 -85 -19 -50 -13c-14,201 -24,407 -29,614 -3,103 -6,209 -6,312 0,100 0,204 3,307 3,98 5,198 8,299 2,71 8,145 10,217 6,71 11,143 16,214 11,130 24,259 40,389l4514 0c13,-106 24,-212 31,-317 6,-72 11,-141 16,-212 8,-122 14,-244 19,-363 3,-100 5,-201 5,-299l0 -153c0,-156 -2,-312 -8,-471 -5,-180 -16,-357 -26,-534l-50 13 -85 18 -85 16 -82 11 -82 5 -82 3 -82 -3 -79 -8 -80 -10 -79 -16 -77 -19 -77 -24 -76 -29 -74 -32 -74 -37 -74 -39 -72 -45 -71 -48 -72 -53 -71 -55 -69 -61 -69 -64 -69 -66 -66 -71 -66 -74 -66 -80 -66 -82 -64 -87 -63 -90 -64 -93 -61 -98 -50 -84 -50 84 -61 98 -63 93 -64 90 -66 87 0 0z"/>
  <path id="_139739024_1_" class="fil0" d="M2174 3031c223,351 588,542 950,672 -124,45 -251,84 -368,119 -29,-98 -55,-196 -60,-215 0,0 0,0 0,0 0,0 0,-2 0,-2l0 0 0 0c-11,-29 -45,-45 -77,-35 -35,11 -58,45 -48,74 8,32 45,48 80,37 8,-2 31,69 60,154 -280,85 -502,151 -545,254 -50,145 175,201 164,24 -2,-27 -5,-22 16,-40 85,-69 223,-122 387,-172 31,103 58,209 63,228 8,31 45,47 79,37 35,-11 59,-45 48,-75 -8,-31 -45,-47 -79,-37 -8,3 -35,-76 -64,-169 146,-42 307,-87 474,-143 167,56 331,98 473,143 -29,93 -55,172 -63,169 -34,-10 -71,6 -79,37 -8,32 13,64 47,75 35,10 72,-6 80,-37 5,-22 34,-125 63,-228 164,50 302,103 386,172 22,18 19,13 16,40 -10,177 215,121 164,-24 -42,-106 -264,-172 -545,-254 27,-87 51,-156 61,-154 34,11 72,-5 79,-37 8,-31 -13,-63 -47,-74 -35,-10 -69,6 -77,35l0 0 0 0c0,0 0,2 0,2 0,0 0,0 0,0 -5,19 -32,117 -61,215 -116,-35 -241,-74 -368,-119 363,-130 728,-321 950,-672 -119,23 -222,31 -312,23 -156,294 -452,474 -765,601 -317,-127 -613,-307 -769,-601 -88,8 -194,0 -313,-23zm276 -927c119,3 148,294 277,384 -37,11 -71,16 -100,11 87,505 473,711 540,317 29,-267 37,-524 34,-778l-564 56 0 -220 561 56c-5,-217 -21,-431 -42,-643l85 0 8 0 82 0c-22,212 -37,423 -43,643l561 -56 0 220 -563 -56c-3,254 5,511 34,778 66,394 452,188 540,-317 -29,5 -64,2 -101,-11 130,-90 156,-381 278,-383 -116,235 -101,492 -209,783 -103,307 -341,484 -579,254l0 0 -6 -8 -5 8 0 0c-238,230 -476,53 -579,-254 -109,-289 -90,-545 -209,-784l0 0z"/>
  <path id="_139736448_1_" class="fil0" d="M3632 6827c-98,-90 -233,-148 -381,-148 -148,0 -283,56 -381,148l762 0 0 0z"/>
  <path id="_139736080_1_" class="fil0" d="M2828 6830l-953 0 455 -950 40 0 -434 902 69 6 48 2 47 0 48 0 48 -2 47 -6 45 -5 45 -5 45 -8 87 -16c69,-13 138,-27 207,-40l39 -8 38 -5 37 -5 37 -6 37 -2 34 -3 34 0 35 3 32 2 31 6c-10,5 -21,8 -31,13 -22,11 -40,21 -59,32 -18,13 -37,24 -55,39 -19,22 -37,37 -53,56l0 0z"/>
  <path id="_139575776_1_" class="fil0" d="M3640 6798c-16,-16 -34,-29 -53,-42 -16,-11 -29,-19 -45,-29 -16,-8 -32,-16 -47,-24l2 -13 8 -3 32 -3 34 -2 35 0 34 2 37 3 37 5 37 6 37 5 40 8c69,13 138,26 206,40l88 15 45 8 45 6 45 5 47 5 48 3 48 0 47 0 48 -3 69 -5 -432 -905 40 0 455 950 -952 0 -35 -32 0 0z"/>
  <path id="_139575392_1_" class="fil0" d="M3428 6679c-15,-5 -34,-10 -50,-13 -13,-3 -29,-5 -42,-8l24 -21 31 -24 3 -3c5,6 13,11 19,19 13,13 26,29 37,42l-14 5 -8 3zm75 -119l7 -3 30 -8 29 -5 29 -2 29 0 29 2 29 5 29 6 29 8 29 8 32 8c32,10 64,21 98,29l69 21 37 10 37 11 37 8 40 8 39 5 43 5 45 3 45 0 47 -3 69 -5 -362 -820 47 3 429 899 -29 3 -48 3 -48 0 -47 0 -48 -3 -45 -5 -45 -6 -45 -5 -45 -8 -87 -16c-69,-13 -138,-26 -206,-40l-40 -7 -40 -6 -37 -5 -37 -5 -37 -3 -37 -3 -34 0 -35 3 -29 3 0 0 3 -14 2 -13 0 -13 0 -13 0 -13 -2 -14 -3 -10 -2 -3 0 0z"/>
  <path id="_139573544_1_" class="fil0" d="M2161 6679l48 3 45 0 45 -3 42 -5 40 -5 39 -8 37 -11 37 -11 38 -10 68 -21c32,-11 64,-21 98,-29l32 -8 29 -8 29 -8 29 -6 29 -5 29 -2 30 0 29 2 29 5 29 8 29 11 29 13 29 16 32 19 32 23 23 22c-5,0 -10,2 -15,2 -19,3 -37,8 -56,11 -8,3 -16,5 -24,8l-5 -6 -32 -7 -34 -6 -35 -2 -34 -3 -34 0 -37 3 -37 2 -37 6 -38 5 -39 5 -40 8c-69,13 -137,27 -206,40l-88 16 -45 8 -45 5 -45 5 -45 5 -47 3 -48 0 -47 0 -48 -3 -29 -2 428 -900 48 -2 -362 820 71 -3 0 0z"/>
  <path id="_139571936_1_" class="fil0" d="M3172 6624l-3 -151 -34 -21 -35 -24 -29 -24 -24 -26 -18 -27 -16 -29 -11 -29 -5 -29 -2 -32 2 -32 5 -31 8 -32 11 -29 13 -29 16 -30 19 -29 23 -31 24 -30 27 -29 21 -21 -3 -164 -16 -10 -16 -8 -15 -8 -16 -6 -16 -2 -19 -3 -18 0 -19 0 -18 3 -19 2 -21 6 -21 5 -42 13c-40,13 -80,27 -119,40l-53 16 -27 8 -29 8 -29 5 -29 5 -32 6 -32 2 -31 3 -24 0 -363 820 29 3 45 2 45 0 43 -2 42 -6 40 -5 39 -8 37 -8 37 -8 35 -10 69 -21c31,-11 66,-22 98,-32l26 -11 32 -8 32 -8 31 -5 32 -5 32 -3 32 0 31 3 32 5 32 8 32 11 31 13 32 16 32 21 34 24 3 8 0 0zm-5 -331l-3 -156 -3 5 -13 24 -8 24 -3 21 0 18 3 19 5 18 11 19 11 8z"/>
  <path id="_139571552_1_" class="fil0" d="M3339 5936l-6 471c0,0 3,0 3,2 29,16 55,32 85,53 10,8 18,16 29,24 8,8 16,16 23,26l14 19 2 5 14 -5 31 -8 32 -5 32 -3 32 0 31 3 32 5 32 5 32 8 31 8 32 8c32,11 66,21 98,32l69 21 34 11 37 8 37 8 40 7 40 6 42 5 42 3 45 0 45 -3 29 -3 -362 -820 -24 0 -32 -2 -31 -3 -32 -5 -29 -6 -29 -5 -30 -8 -26 -8 -53 -16c-40,-13 -79,-26 -119,-39l-18 -6c-32,27 -67,51 -98,77 -64,42 -112,85 -156,130l0 0zm-8 624l0 64 10 -8 32 -22c-13,-13 -27,-23 -42,-34z"/>
  <path id="_139571168_1_" class="fil0" d="M3188 5647l127 0 -3 125 -56 45 -31 26 -29 29 -8 8 0 -233zm116 1006c-34,-3 -69,-3 -103,0 -3,-186 -5,-371 -5,-559 5,-8 13,-15 18,-23 32,-37 66,-72 98,-106 -3,230 -5,460 -8,688l0 0z"/>
  <path id="_139691160_1_" class="fil0" d="M4116 5200c-66,66 -142,124 -225,172l3 -8 13 -37 11 -37 5 -18 6 -27 2 -26 0 -16 185 0 0 -3zm-447 273c-79,26 -164,47 -248,58l0 77 -339 0 0 -77c-273,-37 -516,-156 -696,-334l1410 0 -2 24 -6 24 -5 24 -8 24 -11 24 -10 26 -13 26 -16 27 -19 26 -18 27 -19 24 0 0z"/>
  <path id="_139691024_1_" class="fil0" d="M3100 5015c53,-16 101,-40 141,-77 31,-29 58,-63 79,-103 19,-34 26,-40 63,-56 80,-29 167,-13 265,48 257,254 249,529 -143,839 -328,222 -696,563 -338,772l0 -103c-90,-84 -75,-177 52,-317 77,-85 180,-188 297,-275 166,-127 341,-289 378,-479 53,-278 -161,-527 -407,-598 -88,0 -164,26 -212,79 -26,29 -19,37 -58,48 -103,23 -143,55 -127,95 -40,71 -122,153 10,127l0 0zm233 1511c66,45 114,95 146,137 34,-108 -48,-172 -146,-225l0 88 0 0z"/>
 </g>
</svg>
