<?xml version="1.0" encoding="utf-8"?>
<!DOCTYPE svg>
<svg version="1.2" baseProfile="tiny"
	 xmlns="http://www.w3.org/2000/svg" xmlns:xlink="http://www.w3.org/1999/xlink" xmlns:a="http://ns.adobe.com/AdobeSVGViewerExtensions/3.0/"
	 x="0px" y="0px" width="190px" height="295px" viewBox="0 0 190 295" xml:space="preserve">
<defs>
</defs>
<path id="_139737560_1_" fill="#FFFFFF" d="M186.4,158.8L186.4,158.8l1.2-8.6h-0.2c2.3-20.4,2.8-40.9,2.4-61.4
	c-0.3-11.8-1-23.5-1.7-35.3L175.3,57c-2.8,0.5-5.5,0.8-8.4,1.1c-2.7,0.1-5.3,0-8.1-0.2c-2.7-0.4-5.2-0.9-7.8-1.5
	c-2.6-0.8-5.1-1.7-7.6-2.8c-2.6-1.2-5-2.6-7.5-4.1c-2.5-1.7-4.9-3.5-7.3-5.4c-2.5-2.1-4.9-4.4-7.2-6.7c-3.3-3.5-6.4-7.1-9.4-11
	c-2.4-3.2-4.7-6.4-6.9-9.7c-3.5-5.4-6.7-11-10-16.6c-3.3,5.6-6.6,11.1-10,16.6c-2.2,3.3-4.5,6.5-6.9,9.7c-3,3.8-6.1,7.4-9.4,11
	c-2.4,2.3-4.7,4.5-7.2,6.7c-2.4,1.9-4.8,3.7-7.4,5.4c-2.5,1.5-4.9,2.8-7.5,4.1c-2.5,1.1-5,2-7.6,2.8c-2.6,0.7-5.1,1.2-7.8,1.5
	c-2.7,0.2-5.3,0.3-8.1,0.2l-5.6-0.6C12.2,56.5,7.1,55,1.8,53.6C1.2,64.3,0.5,75,0.2,85.8c-0.5,21.5,0,43,2.4,64.4l-0.1,0l1.2,8.6
	h0.1c1.1,7.6,2.4,15.2,4,22.7c1.3,5.7,2.8,11.4,4.4,17.1l3.5,10.8c1.9,5.2,3.9,10.2,6.2,15.2l4.7,9.5l5.2,9l5.7,8.4l6.3,7.8l6.8,7.3
	l7.3,6.7l7.9,6.1l8.4,5.4l8.9,4.8c4,1.8,8,3.6,12.1,5.2l7.4-3c4.7-2.2,9.1-4.4,13.6-6.9l8.4-5.4l7.9-6.1l7.3-6.7l6.8-7.3l6.3-7.8
	l5.7-8.4l5.2-9l4.7-9.5c2.2-5,4.2-10,6.2-15.2c1.8-5.4,3.5-10.8,5.1-16.3c1.5-5.8,2.8-11.6,4-17.4
	C184.7,170,185.6,164.5,186.4,158.8L186.4,158.8z"/>
<polygon id="_139738592_1_" fill="#007CC3" points="11.1,162.3 12.1,168.3 13.2,174.2 14.4,179.9 15.7,185.6 17.1,191.1 18.6,196.5 
	20.3,201.7 22,206.9 23.9,211.9 25.9,216.7 27.9,221.5 30.1,226.1 32.4,230.5 34.9,234.9 37.4,239.1 40.1,243.1 42.9,247.1 
	45.8,250.8 48.8,254.5 51.9,258 55.2,261.3 58.6,264.5 62.1,267.6 65.7,270.5 69.5,273.3 73.4,276 77.4,278.4 81.6,280.8 85.9,283 
	90.3,285 95,286.9 99.7,285 104.1,283 108.4,280.8 112.5,278.4 116.6,276 120.5,273.3 124.2,270.5 127.9,267.6 131.4,264.5 
	134.8,261.3 138,258 141.2,254.5 144.2,250.8 147.1,247.1 149.9,243.1 152.6,239.1 155.1,234.9 157.5,230.5 159.8,226.1 162,221.5 
	164.1,216.7 166.1,211.9 167.9,206.9 169.7,201.7 171.3,196.5 172.8,191.1 174.3,185.6 175.6,179.9 176.8,174.2 177.9,168.3 
	178.8,162.3 179.5,157.3 10.4,157.3 "/>
<path id="_139628432_1_" fill="#DA251D" d="M83.5,30.8l-2.5,3.1l-2.5,3l-2.5,2.8l-2.5,2.7L71,44.9l-2.6,2.4l-2.6,2.3l-2.7,2.1
	l-2.7,2l-2.7,1.8L55,57.1l-2.8,1.5L49.4,60l-2.8,1.2l-2.9,1.1l-2.9,0.9l-2.9,0.7l-3,0.6l-3,0.4l-3,0.3l-3.1,0.1l-3.1-0.1l-3.1-0.2
	l-3.1-0.4L13.3,64l-3.2-0.7l-1.9-0.5C7.7,70.4,7.3,78.2,7.1,86C7,89.9,6.9,93.9,6.9,97.8c0,3.8,0,7.7,0.1,11.6
	c0.1,3.7,0.2,7.5,0.3,11.3c0.1,2.7,0.3,5.5,0.4,8.2c0.2,2.7,0.4,5.4,0.6,8.1c0.4,4.9,0.9,9.8,1.5,14.7h170.6c0.5-4,0.9-8,1.2-12
	c0.2-2.7,0.4-5.3,0.6-8c0.3-4.6,0.5-9.2,0.7-13.7c0.1-3.8,0.2-7.6,0.2-11.3l0-5.8c0-5.9-0.1-11.8-0.3-17.8c-0.2-6.8-0.6-13.5-1-20.2
	l-1.9,0.5l-3.2,0.7l-3.2,0.6l-3.1,0.4l-3.1,0.2l-3.1,0.1l-3.1-0.1l-3-0.3l-3-0.4l-3-0.6l-2.9-0.7l-2.9-0.9l-2.9-1.1l-2.8-1.2
	l-2.8-1.4l-2.8-1.5l-2.7-1.7l-2.7-1.8l-2.7-2l-2.7-2.1l-2.6-2.3l-2.6-2.4l-2.6-2.5l-2.5-2.7l-2.5-2.8l-2.5-3l-2.5-3.1l-2.4-3.3
	l-2.4-3.4l-2.4-3.5l-2.3-3.7L95,13.7l-1.9,3.2l-2.3,3.7l-2.4,3.5l-2.4,3.4L83.5,30.8L83.5,30.8z"/>
<path id="_139739024_1_" fill="#FFFFFF" d="M54.3,98.2c8.4,13.3,22.2,20.5,35.9,25.4c-4.7,1.7-9.5,3.2-13.9,4.5
	c-1.1-3.7-2.1-7.4-2.3-8.1c0,0,0,0,0,0c0,0,0-0.1,0-0.1l0,0l0,0c-0.4-1.1-1.7-1.7-2.9-1.3c-1.3,0.4-2.2,1.7-1.8,2.8
	c0.3,1.2,1.7,1.8,3,1.4c0.3-0.1,1.2,2.6,2.3,5.8c-10.6,3.2-19,5.7-20.6,9.6c-1.9,5.5,6.6,7.6,6.2,0.9c-0.1-1-0.2-0.8,0.6-1.5
	c3.2-2.6,8.4-4.6,14.6-6.5c1.2,3.9,2.2,7.9,2.4,8.6c0.3,1.2,1.7,1.8,3,1.4c1.3-0.4,2.2-1.7,1.8-2.8c-0.3-1.2-1.7-1.8-3-1.4
	c-0.3,0.1-1.3-2.9-2.4-6.4c5.5-1.6,11.6-3.3,17.9-5.4c6.3,2.1,12.5,3.7,17.9,5.4c-1.1,3.5-2.1,6.5-2.4,6.4c-1.3-0.4-2.7,0.2-3,1.4
	c-0.3,1.2,0.5,2.4,1.8,2.8c1.3,0.4,2.7-0.2,3-1.4c0.2-0.8,1.3-4.7,2.4-8.6c6.2,1.9,11.4,3.9,14.6,6.5c0.8,0.7,0.7,0.5,0.6,1.5
	c-0.4,6.7,8.1,4.6,6.2-0.9c-1.6-4-10-6.5-20.6-9.6c1-3.3,1.9-5.9,2.3-5.8c1.3,0.4,2.7-0.2,3-1.4c0.3-1.2-0.5-2.4-1.8-2.8
	c-1.3-0.4-2.6,0.2-2.9,1.3v0l0,0c0,0,0,0.1,0,0.1c0,0,0,0,0,0c-0.2,0.7-1.2,4.4-2.3,8.1c-4.4-1.3-9.1-2.8-13.9-4.5
	c13.7-4.9,27.5-12.1,35.9-25.4c-4.5,0.9-8.4,1.2-11.8,0.9c-5.9,11.1-17.1,17.9-28.9,22.7C83.2,117,72,110.2,66.1,99.1
	C62.8,99.4,58.8,99.1,54.3,98.2z M64.7,63.2c4.5,0.1,5.6,11.1,10.5,14.5c-1.4,0.4-2.7,0.6-3.8,0.4c3.3,19.1,17.9,26.9,20.4,12
	c1.1-10.1,1.4-19.8,1.3-29.4l-21.3,2.1v-8.3L93,56.6c-0.2-8.2-0.8-16.3-1.6-24.3h3.2h0.3H98c-0.8,8-1.4,16-1.6,24.3l21.2-2.1v8.3
	l-21.3-2.1c-0.1,9.6,0.2,19.3,1.3,29.4c2.5,14.9,17.1,7.1,20.4-12c-1.1,0.2-2.4,0.1-3.8-0.4c4.9-3.4,5.9-14.4,10.5-14.5
	c-4.4,8.9-3.8,18.6-7.9,29.6c-3.9,11.6-12.9,18.3-21.9,9.6h0l-0.2-0.3l-0.2,0.3h0c-9,8.7-18,2-21.9-9.6
	C68.5,81.9,69.2,72.2,64.7,63.2L64.7,63.2z"/>
<path id="_139736448_1_" fill="#FFFFFF" d="M109.4,241.7c-3.7-3.4-8.8-5.6-14.4-5.6c-5.6,0-10.7,2.1-14.4,5.6H109.4L109.4,241.7z"/>
<path id="_139736080_1_" fill="#FFFFFF" d="M79,241.8H43l17.2-35.9h1.5L45.3,240l2.6,0.2l1.8,0.1l1.8,0l1.8,0l1.8-0.1l1.8-0.2
	l1.7-0.2l1.7-0.2l1.7-0.3l3.3-0.6c2.6-0.5,5.2-1,7.8-1.5l1.5-0.3l1.4-0.2l1.4-0.2l1.4-0.2l1.4-0.1l1.3-0.1l1.3,0l1.3,0.1l1.2,0.1
	l1.2,0.2c-0.4,0.2-0.8,0.3-1.2,0.5c-0.8,0.4-1.5,0.8-2.2,1.2c-0.7,0.5-1.4,0.9-2.1,1.5C80.3,240.5,79.6,241.1,79,241.8L79,241.8z"/>
<path id="_139575776_1_" fill="#FFFFFF" d="M109.7,240.6c-0.6-0.6-1.3-1.1-2-1.6c-0.6-0.4-1.1-0.7-1.7-1.1c-0.6-0.3-1.2-0.6-1.8-0.9
	l0.1-0.5l0.3-0.1l1.2-0.1l1.3-0.1l1.3,0l1.3,0.1l1.4,0.1l1.4,0.2l1.4,0.2l1.4,0.2l1.5,0.3c2.6,0.5,5.2,1,7.8,1.5l3.3,0.6l1.7,0.3
	l1.7,0.2l1.7,0.2l1.8,0.2l1.8,0.1l1.8,0l1.8,0l1.8-0.1l2.6-0.2l-16.3-34.2h1.5l17.2,35.9h-36L109.7,240.6L109.7,240.6z"/>
<path id="_139575392_1_" fill="#FFFFFF" d="M101.7,236.1c-0.6-0.2-1.3-0.4-1.9-0.5c-0.5-0.1-1.1-0.2-1.6-0.3l0.9-0.8l1.2-0.9
	l0.1-0.1c0.2,0.2,0.5,0.4,0.7,0.7c0.5,0.5,1,1.1,1.4,1.6L102,236L101.7,236.1z M104.5,231.6l0.3-0.1l1.1-0.3l1.1-0.2l1.1-0.1l1.1,0
	l1.1,0.1l1.1,0.2l1.1,0.2l1.1,0.3l1.1,0.3l1.2,0.3c1.2,0.4,2.4,0.8,3.7,1.1l2.6,0.8l1.4,0.4l1.4,0.4l1.4,0.3l1.5,0.3l1.5,0.2
	l1.6,0.2l1.7,0.1l1.7,0l1.8-0.1l2.6-0.2l-13.7-31l1.8,0.1l16.2,34l-1.1,0.1l-1.8,0.1l-1.8,0l-1.8,0l-1.8-0.1l-1.7-0.2l-1.7-0.2
	l-1.7-0.2l-1.7-0.3l-3.3-0.6c-2.6-0.5-5.2-1-7.8-1.5l-1.5-0.3l-1.5-0.2l-1.4-0.2l-1.4-0.2l-1.4-0.1l-1.4-0.1l-1.3,0l-1.3,0.1
	l-1.1,0.1l0,0l0.1-0.5l0.1-0.5l0-0.5l0-0.5l0-0.5l-0.1-0.5l-0.1-0.4L104.5,231.6L104.5,231.6z"/>
<path id="_139573544_1_" fill="#FFFFFF" d="M53.8,236.1l1.8,0.1l1.7,0l1.7-0.1l1.6-0.2l1.5-0.2l1.5-0.3L65,235l1.4-0.4l1.4-0.4
	l2.6-0.8c1.2-0.4,2.4-0.8,3.7-1.1l1.2-0.3l1.1-0.3l1.1-0.3l1.1-0.2l1.1-0.2l1.1-0.1l1.1,0l1.1,0.1l1.1,0.2l1.1,0.3l1.1,0.4l1.1,0.5
	l1.1,0.6l1.2,0.7l1.2,0.9l0.9,0.8c-0.2,0-0.4,0.1-0.6,0.1c-0.7,0.1-1.4,0.3-2.1,0.4c-0.3,0.1-0.6,0.2-0.9,0.3L88,236l-1.2-0.3
	l-1.3-0.2l-1.3-0.1l-1.3-0.1l-1.3,0l-1.4,0.1l-1.4,0.1l-1.4,0.2l-1.4,0.2l-1.5,0.2l-1.5,0.3c-2.6,0.5-5.2,1-7.8,1.5l-3.3,0.6
	l-1.7,0.3l-1.7,0.2l-1.7,0.2l-1.7,0.2l-1.8,0.1l-1.8,0l-1.8,0l-1.8-0.1l-1.1-0.1l16.2-34l1.8-0.1l-13.7,31L53.8,236.1L53.8,236.1z"
	/>
<path id="_139571936_1_" fill="#FFFFFF" d="M92,234l-0.1-5.7l-1.3-0.8l-1.3-0.9l-1.1-0.9l-0.9-1l-0.7-1l-0.6-1.1l-0.4-1.1l-0.2-1.1
	l-0.1-1.2l0.1-1.2l0.2-1.2l0.3-1.2l0.4-1.1l0.5-1.1l0.6-1.1l0.7-1.1L89,210l0.9-1.1l1-1.1l0.8-0.8l-0.1-6.2l-0.6-0.4l-0.6-0.3
	l-0.6-0.3l-0.6-0.2l-0.6-0.1l-0.7-0.1l-0.7,0l-0.7,0l-0.7,0.1l-0.7,0.1l-0.8,0.2l-0.8,0.2l-1.6,0.5c-1.5,0.5-3,1-4.5,1.5l-2,0.6
	l-1,0.3l-1.1,0.3l-1.1,0.2l-1.1,0.2l-1.2,0.2l-1.2,0.1l-1.2,0.1l-0.9,0l-13.7,31l1.1,0.1l1.7,0.1l1.7,0l1.6-0.1l1.6-0.2l1.5-0.2
	l1.5-0.3l1.4-0.3l1.4-0.3l1.3-0.4l2.6-0.8c1.2-0.4,2.5-0.8,3.7-1.2L75,231l1.2-0.3l1.2-0.3l1.2-0.2l1.2-0.2l1.2-0.1l1.2,0l1.2,0.1
	l1.2,0.2l1.2,0.3l1.2,0.4l1.2,0.5l1.2,0.6l1.2,0.8l1.3,0.9L92,234L92,234z M91.8,221.5l-0.1-5.9l-0.1,0.2l-0.5,0.9l-0.3,0.9
	l-0.1,0.8l0,0.7l0.1,0.7l0.2,0.7l0.4,0.7L91.8,221.5z"/>
<path id="_139571552_1_" fill="#FFFFFF" d="M98.3,208l-0.2,17.8c0,0,0.1,0,0.1,0.1c1.1,0.6,2.1,1.2,3.2,2c0.4,0.3,0.7,0.6,1.1,0.9
	c0.3,0.3,0.6,0.6,0.9,1l0.5,0.7l0.1,0.2l0.5-0.2l1.2-0.3l1.2-0.2l1.2-0.1l1.2,0l1.2,0.1l1.2,0.2l1.2,0.2l1.2,0.3l1.2,0.3l1.2,0.3
	c1.2,0.4,2.5,0.8,3.7,1.2l2.6,0.8l1.3,0.4l1.4,0.3l1.4,0.3l1.5,0.3l1.5,0.2l1.6,0.2l1.6,0.1l1.7,0l1.7-0.1l1.1-0.1l-13.7-31l-0.9,0
	l-1.2-0.1l-1.2-0.1l-1.2-0.2l-1.1-0.2l-1.1-0.2l-1.1-0.3l-1-0.3l-2-0.6c-1.5-0.5-3-1-4.5-1.5l-0.7-0.2c-1.2,1-2.5,1.9-3.7,2.9
	C101.8,204.7,100,206.3,98.3,208L98.3,208z M98,231.6l0,2.4l0.4-0.3l1.2-0.8C99.1,232.4,98.6,232,98,231.6z"/>
<path id="_139571168_1_" fill="#FFFFFF" d="M92.6,197.1h4.8l-0.1,4.7l-2.1,1.7l-1.2,1l-1.1,1.1l-0.3,0.3L92.6,197.1z M97,235.1
	c-1.3-0.1-2.6-0.1-3.9,0c-0.1-7-0.2-14-0.2-21.1c0.2-0.3,0.5-0.6,0.7-0.9c1.2-1.4,2.5-2.7,3.7-4C97.2,217.8,97.1,226.5,97,235.1
	L97,235.1z"/>
<path id="_139691160_1_" fill="#FFFFFF" d="M127.7,180.2c-2.5,2.5-5.4,4.7-8.5,6.5l0.1-0.3l0.5-1.4l0.4-1.4l0.2-0.7l0.2-1l0.1-1
	l0-0.6H127.7z M110.8,190.5c-3,1-6.2,1.8-9.4,2.2v2.9H88.6v-2.9c-10.3-1.4-19.5-5.9-26.3-12.6h53.3l-0.1,0.9l-0.2,0.9l-0.2,0.9
	l-0.3,0.9l-0.4,0.9l-0.4,1l-0.5,1l-0.6,1l-0.7,1l-0.7,1L110.8,190.5L110.8,190.5z"/>
<path id="_139691024_1_" fill="#FFFFFF" d="M89.3,173.2c2-0.6,3.8-1.5,5.3-2.9c1.2-1.1,2.2-2.4,3-3.9c0.7-1.3,1-1.5,2.4-2.1
	c3-1.1,6.3-0.5,10,1.8c9.7,9.6,9.4,20-5.4,31.7c-12.4,8.4-26.3,21.3-12.8,29.2l0-3.9c-3.4-3.2-2.8-6.7,2-12
	c2.9-3.2,6.8-7.1,11.2-10.4c6.3-4.8,12.9-10.9,14.3-18.1c2-10.5-6.1-19.9-15.4-22.6c-3.3,0-6.2,1-8,3c-1,1.1-0.7,1.4-2.2,1.8
	c-3.9,0.9-5.4,2.1-4.8,3.6C87.4,171.1,84.3,174.2,89.3,173.2L89.3,173.2z M98.1,230.3c2.5,1.7,4.3,3.6,5.5,5.2
	c1.3-4.1-1.8-6.5-5.5-8.5L98.1,230.3L98.1,230.3z"/>
</svg>
